<svg width="18" height="18" viewBox="0 0 18 18" fill="none" xmlns="http://www.w3.org/2000/svg">
<g clip-path="url(#clip0_1_2556)">
<path d="M4.91665 3.16667C3.95016 3.16667 3.16666 3.95017 3.16666 4.91667V13.0833C3.16666 14.0498 3.95016 14.8333 4.91665 14.8333H13.0833C14.0498 14.8333 14.8333 14.0498 14.8333 13.0833V10.4808C14.8333 10.1586 15.0944 9.89744 15.4166 9.89744C15.7388 9.89744 15.9999 10.1586 15.9999 10.4808V13.0833C15.9999 14.6942 14.6941 16 13.0833 16H4.91665C3.30583 16 2 14.6942 2 13.0833V4.91667C2 3.30584 3.30583 2 4.91665 2H7.5192C7.84137 2 8.10254 2.26117 8.10254 2.58333C8.10254 2.9055 7.84137 3.16667 7.5192 3.16667H4.91665ZM9.89746 2.58333C9.89746 2.26117 10.1586 2 10.4808 2H15.4167C15.7388 2 16 2.26117 16 2.58333V7.51923C16 7.8414 15.7388 8.10256 15.4167 8.10256C15.0945 8.10256 14.8333 7.8414 14.8333 7.51923V3.99163L10.8933 7.93171C10.6655 8.15952 10.2961 8.15952 10.0683 7.93171C9.84051 7.70391 9.84051 7.33456 10.0683 7.10676L14.0084 3.16667H10.4808C10.1586 3.16667 9.89746 2.9055 9.89746 2.58333Z" fill="#666666"/>
</g>
<defs>
<clipPath id="clip0_1_2556">
<rect width="18" height="18" fill="white"/>
</clipPath>
</defs>
</svg>
