<svg width="20" height="20" viewBox="0 0 20 20" fill="none" xmlns="http://www.w3.org/2000/svg">
<path fill-rule="evenodd" clip-rule="evenodd" d="M4.65977 4.15678H10.2632V2.5H4.65046C4.19298 2.5 3.79872 2.66854 3.47931 2.99963C3.16014 3.33047 3 3.73596 3 4.20404V15.796C3 16.264 3.16014 16.6695 3.47931 17.0004C3.79872 17.3315 4.19298 17.5 4.65046 17.5H10.2632V15.8432H4.65977C4.65544 15.8405 4.64711 15.8343 4.63491 15.8216C4.61922 15.8054 4.6133 15.7951 4.61139 15.7911L4.61139 4.20884C4.61331 4.20485 4.61922 4.19464 4.63491 4.17837C4.64711 4.16573 4.65544 4.15955 4.65977 4.15678Z" fill="#333333"/>
<path fill-rule="evenodd" clip-rule="evenodd" d="M12.1777 12.6429L13.2739 13.8624L17 10L13.2739 6.13765L12.1777 7.35709L13.9282 9.17161H7.44506V10.8284H13.9282L12.1777 12.6429Z" fill="#333333"/>
</svg>
