<svg width="14" height="14" viewBox="0 0 14 14" fill="none" xmlns="http://www.w3.org/2000/svg">
<path fill-rule="evenodd" clip-rule="evenodd" d="M1.5 12.5V1.5H12.5V12.5H1.5ZM0 1C0 0.447716 0.447715 0 1 0H13C13.5523 0 14 0.447715 14 1V13C14 13.5523 13.5523 14 13 14H1C0.447716 14 0 13.5523 0 13V1ZM6.02857 6.98644L3.5 10.8225L5.37143 10.8504L6.88572 8.15818C6.95232 8.0466 7.00965 7.92998 7.05714 7.80945C7.10443 7.93257 7.16679 8.04967 7.24286 8.15818L8.67143 10.8504H10.5L8.05714 6.98644L10.5 3.15039H8.78572L7.35714 5.57756C7.25536 5.75332 7.16472 5.935 7.08572 6.12158C7.01975 5.9387 6.93853 5.76142 6.84286 5.59151L5.58571 3.16434H3.71429L6.02857 6.98644Z" fill="#DBDBDB"/>
</svg>
