<svg width="10" height="8" viewBox="0 0 10 8" fill="none" xmlns="http://www.w3.org/2000/svg">
<path fill-rule="evenodd" clip-rule="evenodd" d="M3.55939 7.36397C3.65688 7.40297 3.75765 7.41966 3.8569 7.41966C3.95615 7.41966 4.05692 7.40297 4.15442 7.36397C4.26294 7.32056 4.35209 7.25266 4.42412 7.18063L9.63766 1.96709C9.79239 1.81236 9.87669 1.61418 9.87669 1.3931C9.87669 1.17201 9.79239 0.97384 9.63766 0.81911C9.48293 0.66438 9.28476 0.580078 9.06367 0.580078C8.84259 0.580078 8.64441 0.66438 8.48968 0.81911L3.8569 5.45189L1.97308 3.56807C1.82186 3.41685 1.62721 3.32904 1.40586 3.32904C1.18451 3.32904 0.989857 3.41685 0.838642 3.56807C0.680598 3.72611 0.599609 3.92792 0.599609 4.14883C0.599609 4.36973 0.680598 4.57154 0.838642 4.72959L3.28968 7.18063C3.36171 7.25266 3.45086 7.32056 3.55939 7.36397Z" fill="white"/>
</svg>
