<svg width="30" height="30" viewBox="0 0 30 30" fill="none" xmlns="http://www.w3.org/2000/svg">
<rect width="30" height="30" rx="15" fill="white"/>
<path fill-rule="evenodd" clip-rule="evenodd" d="M8 11.5H16V10H8C6.89543 10 6 10.8954 6 12V19.5C6 20.6046 6.89543 21.5 8 21.5H22C23.1046 21.5 24 20.6046 24 19.5V16.5H22.5V19.5C22.5 19.7761 22.2761 20 22 20H8C7.72386 20 7.5 19.7761 7.5 19.5V12C7.5 11.7239 7.72386 11.5 8 11.5ZM18.1469 10.203C18.3662 9.9546 18.7453 9.93098 18.9937 10.1503L20.748 11.6989L22.5023 10.1503C22.7508 9.93098 23.1299 9.9546 23.3492 10.203C23.5685 10.4515 23.5449 10.8306 23.2965 11.0499L21.6547 12.4992L23.295 13.9472C23.5435 14.1665 23.5671 14.5456 23.3478 14.7941C23.1285 15.0425 22.7493 15.0661 22.5009 14.8468L20.748 13.2995L18.9952 14.8468C18.7468 15.0661 18.3676 15.0425 18.1483 14.7941C17.929 14.5456 17.9526 14.1665 18.201 13.9472L19.8414 12.4992L18.1996 11.0499C17.9512 10.8306 17.9276 10.4515 18.1469 10.203Z" fill="#BCBCBC"/>
</svg>
