<svg width="18" height="18" viewBox="0 0 18 18" fill="none" xmlns="http://www.w3.org/2000/svg">
<path d="M8.49011 12C8.42418 12 8.35495 11.9871 8.28242 11.9614C8.20989 11.9356 8.14066 11.8906 8.07473 11.8263L4.17802 8.02317C4.05934 7.90734 4 7.76577 4 7.59846C4 7.43115 4.05934 7.28958 4.17802 7.17375C4.2967 7.05792 4.43516 7 4.59341 7C4.75165 7 4.89011 7.05792 5.00879 7.17375L8.49011 10.5714L11.9714 7.17375C12.0901 7.05792 12.2319 7 12.3967 7C12.5615 7 12.7033 7.05792 12.822 7.17375C12.9407 7.28958 13 7.42793 13 7.5888C13 7.74968 12.9407 7.88803 12.822 8.00386L8.90549 11.8263C8.83956 11.8906 8.77363 11.9356 8.70769 11.9614C8.64176 11.9871 8.56923 12 8.49011 12Z" fill="#DBDBDB"/>
</svg>
