<svg width="18" height="18" viewBox="0 0 18 18" fill="none" xmlns="http://www.w3.org/2000/svg">
<path d="M9.01099 6C9.08425 6 9.16117 6.01544 9.24176 6.04633C9.32234 6.07722 9.39927 6.13127 9.47253 6.20849L13.8022 10.7722C13.9341 10.9112 14 11.0811 14 11.2819C14 11.4826 13.9341 11.6525 13.8022 11.7915C13.6703 11.9305 13.5165 12 13.3407 12C13.1648 12 13.011 11.9305 12.8791 11.7915L9.01099 7.71429L5.14286 11.7915C5.01099 11.9305 4.85348 12 4.67033 12C4.48718 12 4.32967 11.9305 4.1978 11.7915C4.06593 11.6525 4 11.4865 4 11.2934C4 11.1004 4.06593 10.9344 4.1978 10.7954L8.54945 6.20849C8.62271 6.13127 8.69597 6.07722 8.76923 6.04633C8.84249 6.01544 8.92308 6 9.01099 6Z" fill="#666666"/>
</svg>
