<svg width="18" height="18" viewBox="0 0 18 18" fill="none" xmlns="http://www.w3.org/2000/svg">
<path d="M8.50989 7C8.57582 7 8.64505 7.01287 8.71758 7.03861C8.79011 7.06435 8.85934 7.1094 8.92527 7.17375L12.822 10.9768C12.9407 11.0927 13 11.2342 13 11.4015C13 11.5689 12.9407 11.7104 12.822 11.8263C12.7033 11.9421 12.5648 12 12.4066 12C12.2484 12 12.1099 11.9421 11.9912 11.8263L8.50989 8.42857L5.02857 11.8263C4.90989 11.9421 4.76813 12 4.6033 12C4.43846 12 4.2967 11.9421 4.17802 11.8263C4.05934 11.7104 4 11.5721 4 11.4112C4 11.2503 4.05934 11.112 4.17802 10.9961L8.09451 7.17375C8.16044 7.1094 8.22637 7.06435 8.29231 7.03861C8.35824 7.01287 8.43077 7 8.50989 7Z" fill="#151515"/>
</svg>
