<svg width="18" height="18" viewBox="0 0 18 18" fill="none" xmlns="http://www.w3.org/2000/svg">
<g opacity="0.99">
<path opacity="0.99" d="M12.3334 9.70018H9V13.2002H12.3334V9.70018ZM11.6666 2V3.40036H6.33343V2H4.99971V3.40036H4.33371C4.15896 3.40036 3.98593 3.4366 3.82456 3.50701C3.66318 3.57741 3.51665 3.6806 3.39336 3.81063C3.27007 3.94067 3.17246 4.09499 3.10613 4.26475C3.0398 4.4345 3.00607 4.61634 3.00686 4.79982L3 14.5996C2.99989 14.7836 3.03431 14.9657 3.10129 15.1357C3.16828 15.3056 3.26652 15.46 3.39038 15.5901C3.51425 15.7202 3.66133 15.8233 3.82319 15.8936C3.98506 15.964 4.15854 16.0001 4.33371 16H13.6663C14.0197 15.999 14.3584 15.8512 14.6084 15.5888C14.8583 15.3264 14.9991 14.9707 15 14.5996V4.79982C14.9991 4.42871 14.8583 4.07308 14.6084 3.81067C14.3584 3.54825 14.0197 3.40041 13.6663 3.39946H12.9994V2H11.6666ZM13.6663 14.5996H4.33371V6.89946H13.6663V14.5996Z" fill="#808080"/>
</g>
</svg>
