<svg width="20" height="20" viewBox="0 0 20 20" fill="none" xmlns="http://www.w3.org/2000/svg">
<path fill-rule="evenodd" clip-rule="evenodd" d="M9.56222 9.0036C11.396 9.0036 12.8825 7.54772 12.8825 5.7518C12.8825 3.95588 11.396 2.5 9.56222 2.5C7.72849 2.5 6.24195 3.95588 6.24195 5.7518C6.24195 7.54772 7.72849 9.0036 9.56222 9.0036ZM9.56222 7.45513C10.5228 7.45513 11.3014 6.69252 11.3014 5.7518C11.3014 4.81108 10.5228 4.04848 9.56222 4.04848C8.60169 4.04848 7.82303 4.81108 7.82303 5.7518C7.82303 6.69252 8.60169 7.45513 9.56222 7.45513Z" fill="#333333"/>
<path fill-rule="evenodd" clip-rule="evenodd" d="M17.5 16.4994L16.0572 15.0867C16.398 14.5642 16.5807 13.9549 16.5798 13.33C16.5796 11.5258 15.0847 10.0618 13.2425 10.0618C11.4002 10.0618 9.90515 11.526 9.90515 13.3303C9.90515 15.1345 11.4 16.5986 13.2422 16.5988C13.8802 16.5996 14.5024 16.4207 15.0359 16.087L16.4784 17.5L17.5 16.4994ZM13.2431 15.1842C13.7342 15.185 14.2061 14.9981 14.5586 14.6633L14.6036 14.6193C14.9454 14.2741 15.1362 13.8112 15.1355 13.3303C15.1355 12.3058 14.2883 11.4763 13.2425 11.4763C12.1963 11.4763 11.3495 12.3057 11.3495 13.3303C11.3495 14.3545 12.197 15.1842 13.2431 15.1842Z" fill="#333333"/>
<path d="M4.08108 16.9525C4.08108 15.748 4.26619 14.1211 5.06103 12.9179C5.44701 12.3337 5.97395 11.853 6.70647 11.5551C7.44442 11.255 8.44692 11.1179 9.8156 11.3159L10.0466 9.78399C8.46391 9.55509 7.16065 9.6937 6.10013 10.125C5.03417 10.5585 4.26989 11.2649 3.73356 12.0768C2.68381 13.6658 2.5 15.6671 2.5 16.9525H4.08108Z" fill="#333333"/>
</svg>
