<svg xmlns="http://www.w3.org/2000/svg" xmlns:xlink="http://www.w3.org/1999/xlink" width="124" height="25.442" viewBox="0 0 124 25.442"><defs><clipPath id="a"><rect width="124" height="25.442" transform="translate(0 0)" fill="#fff"/></clipPath></defs><g clip-path="url(#a)"><path d="M36.324,21.539a1.68,1.68,0,0,0-.639-1.4,7.976,7.976,0,0,0-2.247-1.034,21.542,21.542,0,0,1-2.628-1.038q-3.321-1.616-3.317-4.446a3.963,3.963,0,0,1,.828-2.486,5.367,5.367,0,0,1,2.337-1.675,9.145,9.145,0,0,1,3.4-.6,7.906,7.906,0,0,1,3.3.652,5.211,5.211,0,0,1,2.268,1.855,4.843,4.843,0,0,1,.809,2.752h-4.1a2.048,2.048,0,0,0-.639-1.607,2.509,2.509,0,0,0-1.731-.569,2.851,2.851,0,0,0-1.742.483,1.417,1.417,0,0,0,.065,2.41,8.913,8.913,0,0,0,2.475,1.1,15.27,15.27,0,0,1,2.907,1.218,4.85,4.85,0,0,1,2.765,4.366,4.125,4.125,0,0,1-1.688,3.491,7.539,7.539,0,0,1-4.631,1.268,9.228,9.228,0,0,1-3.756-.739,5.663,5.663,0,0,1-2.533-2.025,5.251,5.251,0,0,1-.849-2.961H31.1a2.586,2.586,0,0,0,.708,2.007,3.38,3.38,0,0,0,2.3.645,2.652,2.652,0,0,0,1.611-.436,1.434,1.434,0,0,0,.592-1.228Z" transform="translate(-0.843 -0.834)"/><path d="M56.485,12.257H51.361V26.051H47.245V12.257h-5.03V9.1H56.485Z" transform="translate(-1.319 -0.843)"/><path d="M64.616,20.057H62.388v5.995H58.272V9.1H64.99a7.557,7.557,0,0,1,4.751,1.337,4.525,4.525,0,0,1,1.713,3.779,5.448,5.448,0,0,1-.722,2.929,5.121,5.121,0,0,1-2.257,1.884l3.564,6.841v.177h-4.41Zm-2.228-3.142h2.6a2.347,2.347,0,0,0,1.764-.612,2.347,2.347,0,0,0,.592-1.708,2.389,2.389,0,0,0-.6-1.722,2.318,2.318,0,0,0-1.76-.623h-2.6v4.669Z" transform="translate(-1.821 -0.843)"/><path d="M84.5,22.885h-5.64l-.984,3.167h-4.4L79.743,9.1h3.869L89.92,26.051H85.5l-1-3.167Zm-4.656-3.152h3.669l-1.84-5.88Z" transform="translate(-2.296 -0.843)"/><path d="M110.6,25.967h-3.527V18.682h-6.881v7.285H96.665v-17h3.528v6.888h6.881V8.969H110.6v17Z" transform="translate(-3.021 -0.838)"/><path d="M120.572,19.745h-2.813v6.222h-3.527v-17h6.362a7.227,7.227,0,0,1,4.682,1.344,4.622,4.622,0,0,1,1.648,3.794,5.2,5.2,0,0,1-.759,2.9,5.168,5.168,0,0,1-2.3,1.852l3.705,6.946v.162h-3.79Zm-2.813-2.839h2.846a2.931,2.931,0,0,0,2.058-.67,2.387,2.387,0,0,0,.729-1.852,2.566,2.566,0,0,0-.69-1.891,2.876,2.876,0,0,0-2.112-.688h-2.835v5.1Z" transform="translate(-3.57 -0.838)"/><path d="M19.794,8.663H15.4v7.223a5.563,5.563,0,0,1-4.874,5.566A5.484,5.484,0,0,1,4.4,16.027V3.176L0,.514V16.027a9.7,9.7,0,0,0,1.669,5.458,9.933,9.933,0,0,0,16.463,0A9.726,9.726,0,0,0,19.8,16.027V8.663Z" transform="translate(0 -0.514)"/><path d="M22.621,26.692a2.183,2.183,0,1,0-2.2-2.183A2.191,2.191,0,0,0,22.621,26.692Z" transform="translate(-0.638 -1.351)"/></g></svg>