<svg width="48" height="48" viewBox="0 0 48 48" fill="none" xmlns="http://www.w3.org/2000/svg">
<circle cx="24" cy="24" r="24" fill="black"/>
<path d="M29.1983 23.1557C29.2275 26.3333 31.9699 27.3909 32 27.4046C31.9767 27.4789 31.5617 28.9119 30.5549 30.3917C29.6852 31.6712 28.7814 32.9458 27.3587 32.9722C25.9603 32.9986 25.5113 32.1384 23.9127 32.1384C22.315 32.1384 21.8155 32.9458 20.4919 32.9986C19.1188 33.0514 18.0731 31.6155 17.1956 30.3409C15.4036 27.7321 14.0333 22.9729 15.873 19.759C16.7865 18.1638 18.4201 17.1531 20.1926 17.1267C21.5415 17.1013 22.8136 18.0397 23.6386 18.0397C24.4627 18.0397 26.0088 16.9107 27.6356 17.0769C28.3159 17.1052 30.2274 17.3535 31.4538 19.1598C31.3557 19.2214 29.174 20.4989 29.1983 23.1557ZM26.5705 15.3527C27.2994 14.4651 27.7902 13.2296 27.656 12C26.6055 12.042 25.3344 12.7047 24.5803 13.5913C23.9049 14.3772 23.3131 15.6342 23.4724 16.8394C24.6444 16.9303 25.8417 16.2402 26.5705 15.3527Z" fill="white"/>
</svg>
