<svg width="20" height="20" viewBox="0 0 20 20" fill="none" xmlns="http://www.w3.org/2000/svg">
<path d="M14.8309 7.48034L11.5197 4.16916M2 17L4.80157 16.6887C5.14385 16.6507 5.31499 16.6317 5.47496 16.5799C5.61688 16.5339 5.75194 16.469 5.87648 16.3869C6.01684 16.2943 6.1386 16.1726 6.38213 15.9291L16.3142 5.99696C17.2286 5.0826 17.2286 3.60013 16.3142 2.68577C15.3999 1.77141 13.9174 1.77141 13.0031 2.68577L3.07094 12.6179C2.82742 12.8614 2.70566 12.9832 2.6131 13.1235C2.53098 13.2481 2.46606 13.3831 2.42012 13.525C2.36833 13.685 2.34932 13.8561 2.31128 14.1984L2 17Z" stroke="#222222" stroke-width="1.2" stroke-linecap="round" stroke-linejoin="round"/>
<path d="M2 17H17" stroke="#222222" stroke-width="1.2" stroke-linecap="round"/>
</svg>
