<svg width="20" height="20" viewBox="0 0 20 20" fill="none" xmlns="http://www.w3.org/2000/svg">
<circle cx="10" cy="10" r="10" fill="#5F0000"/>
<path d="M9.79144 9.85877L6.96301 14.7577" stroke="white" stroke-width="1.2" stroke-linecap="round" stroke-linejoin="round"/>
<path d="M9.09356 5.38276C9.15621 4.94788 9.18754 4.73043 9.29888 4.60564C9.39624 4.49651 9.53275 4.43023 9.67872 4.4212C9.84564 4.41087 10.0359 4.52071 10.4164 4.7404L13.9121 6.75867C14.2927 6.97836 14.4829 7.0882 14.5574 7.23792C14.6226 7.36885 14.6334 7.52021 14.5876 7.65909C14.5352 7.81791 14.3626 7.95376 14.0173 8.22547L12.8337 9.1568C12.7835 9.1963 12.7584 9.21606 12.7359 9.23838C12.7159 9.25821 12.6974 9.27953 12.6806 9.30216C12.6617 9.32764 12.6458 9.3553 12.6138 9.41063L12.0013 10.4716C11.9513 10.5581 11.9263 10.6014 11.9096 10.6475C11.8948 10.6885 11.8849 10.731 11.88 10.7743C11.8745 10.8231 11.8777 10.873 11.8842 10.9727L12.0176 13.0423C12.0523 13.5801 12.0697 13.8491 11.9671 14.0045C11.8777 14.14 11.7336 14.2295 11.5725 14.2496C11.3877 14.2727 11.1543 14.1379 10.6876 13.8684L5.87145 11.0878C5.4047 10.8184 5.17132 10.6836 5.09886 10.512C5.03574 10.3625 5.0412 10.1929 5.11382 10.0478C5.19717 9.88122 5.43873 9.76178 5.92187 9.5229L7.78095 8.60368C7.87053 8.55939 7.91532 8.53724 7.95481 8.50811C7.98986 8.48225 8.02175 8.45235 8.04981 8.41904C8.08143 8.3815 8.10641 8.33823 8.15638 8.25169L8.7689 7.19077C8.80084 7.13544 8.81682 7.10777 8.82944 7.07869C8.84065 7.05284 8.84989 7.02619 8.85705 6.99894C8.86512 6.96828 8.86968 6.93666 8.87879 6.87342L9.09356 5.38276Z" fill="white"/>
</svg>
