<svg width="20" height="20" viewBox="0 0 20 20" fill="none" xmlns="http://www.w3.org/2000/svg">
<path d="M9.42493 17.1099L9.85343 16.6899L9.42493 17.1099ZM9.84358 17.4572L10.0313 16.8873L10.0313 16.8873L9.84358 17.4572ZM9.28056 16.9626L9.70899 16.5425L9.70899 16.5425L9.28056 16.9626ZM10.7194 16.9626L10.291 16.5425L10.291 16.5425L10.7194 16.9626ZM10.5751 17.1099L10.1466 16.6899L10.1466 16.6899L10.5751 17.1099ZM10.1564 17.4572L9.96872 16.8873L9.96872 16.8873L10.1564 17.4572ZM10 10.8413L10 10.2413L10 10.8413ZM7.42857 8.2699L6.82857 8.2699L7.42857 8.2699ZM8.99642 17.5298C9.09051 17.6258 9.186 17.7239 9.27374 17.8C9.36625 17.8802 9.49041 17.9726 9.65588 18.0271L10.0313 16.8873C10.0812 16.9038 10.0971 16.9256 10.0597 16.8932C10.0175 16.8566 9.96143 16.8001 9.85343 16.6899L8.99642 17.5298ZM8.85212 17.3826C8.90019 17.4317 8.94828 17.4807 8.99642 17.5298L9.85343 16.6899C9.80521 16.6407 9.75705 16.5916 9.70899 16.5425L8.85212 17.3826ZM3.4 8.44132C3.4 10.1794 4.1056 11.7309 5.12137 13.1743C6.1323 14.6107 7.4899 15.9932 8.85212 17.3826L9.70899 16.5425C8.32925 15.1353 7.04658 13.8248 6.10271 12.4836C5.1637 11.1494 4.6 9.83857 4.6 8.44132L3.4 8.44132ZM10 1.6699C6.3391 1.6699 3.4 4.71761 3.4 8.44132L4.6 8.44132C4.6 5.34826 7.03348 2.8699 10 2.8699L10 1.6699ZM16.6 8.44132C16.6 4.71761 13.6609 1.6699 10 1.6699L10 2.8699C12.9665 2.8699 15.4 5.34826 15.4 8.44132L16.6 8.44132ZM11.1479 17.3827C12.5101 15.9932 13.8677 14.6107 14.8786 13.1743C15.8944 11.7309 16.6 10.1794 16.6 8.44132L15.4 8.44132C15.4 9.83857 14.8363 11.1494 13.8973 12.4836C12.9534 13.8248 11.6707 15.1353 10.291 16.5425L11.1479 17.3827ZM11.0036 17.5298C11.0517 17.4807 11.0998 17.4317 11.1479 17.3827L10.291 16.5425C10.2429 16.5916 10.1948 16.6407 10.1466 16.6899L11.0036 17.5298ZM10.3441 18.0271C10.5096 17.9726 10.6338 17.8802 10.7263 17.8C10.814 17.7239 10.9095 17.6258 11.0036 17.5298L10.1466 16.6899C10.0386 16.8001 9.9825 16.8566 9.94032 16.8932C9.9029 16.9256 9.91878 16.9038 9.96872 16.8873L10.3441 18.0271ZM9.65588 18.0271C9.87991 18.1009 10.1201 18.1009 10.3441 18.0271L9.96872 16.8873C9.98851 16.8808 10.0115 16.8808 10.0313 16.8873L9.65588 18.0271ZM10 11.4413C11.7515 11.4413 13.1714 10.0214 13.1714 8.2699L11.9714 8.2699C11.9714 9.35869 11.0888 10.2413 10 10.2413L10 11.4413ZM6.82857 8.2699C6.82857 10.0214 8.24847 11.4413 10 11.4413L10 10.2413C8.91121 10.2413 8.02857 9.35869 8.02857 8.2699L6.82857 8.2699ZM10 5.09847C8.24847 5.09847 6.82857 6.51836 6.82857 8.2699L8.02857 8.2699C8.02857 7.18111 8.91121 6.29847 10 6.29847L10 5.09847ZM13.1714 8.2699C13.1714 6.51836 11.7515 5.09847 10 5.09847L10 6.29847C11.0888 6.29847 11.9714 7.18111 11.9714 8.2699L13.1714 8.2699Z" fill="#222222"/>
</svg>
