<svg width="20" height="20" viewBox="0 0 20 20" fill="none" xmlns="http://www.w3.org/2000/svg">
<path d="M7.80843 8.401C8.29474 9.41388 8.95768 10.3632 9.79724 11.2028C10.6368 12.0423 11.5861 12.7053 12.599 13.1916C12.6861 13.2334 12.7297 13.2543 12.7848 13.2704C12.9807 13.3275 13.2212 13.2865 13.3871 13.1677C13.4338 13.1342 13.4738 13.0943 13.5536 13.0144C13.7979 12.7702 13.92 12.648 14.0429 12.5682C14.506 12.267 15.1031 12.267 15.5663 12.5682C15.6891 12.648 15.8113 12.7702 16.0556 13.0144L16.1917 13.1506C16.563 13.5219 16.7487 13.7076 16.8496 13.907C17.0501 14.3036 17.0501 14.7719 16.8496 15.1685C16.7487 15.3679 16.563 15.5535 16.1917 15.9248L16.0816 16.035C15.7115 16.4051 15.5265 16.5901 15.2749 16.7314C14.9958 16.8882 14.5622 17.0009 14.2421 17C13.9535 16.9991 13.7563 16.9432 13.3619 16.8312C11.2424 16.2297 9.24246 15.0946 7.57393 13.4261C5.9054 11.7575 4.77035 9.75755 4.16877 7.63806C4.05683 7.24367 4.00086 7.04647 4.00001 6.75794C3.99905 6.43777 4.1118 6.00422 4.26861 5.72508C4.40992 5.47352 4.59495 5.28849 4.96501 4.91843L5.07515 4.80829C5.44648 4.43696 5.63214 4.25129 5.83155 4.15044C6.22811 3.94985 6.69644 3.94985 7.09301 4.15044C7.29241 4.25129 7.47807 4.43696 7.8494 4.80829L7.98556 4.94445C8.22984 5.18872 8.35198 5.31086 8.43183 5.43368C8.73297 5.89685 8.73297 6.49397 8.43183 6.95714C8.35198 7.07996 8.22984 7.2021 7.98556 7.44638C7.90569 7.52625 7.86575 7.56618 7.83232 7.61287C7.71353 7.77876 7.67252 8.01931 7.72962 8.21519C7.74569 8.27032 7.7666 8.31388 7.80843 8.401Z" stroke="#222222" stroke-width="1.2" stroke-linecap="round" stroke-linejoin="round"/>
</svg>
