<svg width="40" height="40" viewBox="0 0 40 40" fill="none" xmlns="http://www.w3.org/2000/svg">
<g clip-path="url(#clip0_1292_14030)">
<circle cx="20" cy="20" r="20" fill="#C8D1E2"/>
<path fill-rule="evenodd" clip-rule="evenodd" d="M20 11C19.1716 11 18.5 11.6716 18.5 12.5V22.5C18.5 23.3284 19.1716 24 20 24C20.8284 24 21.5 23.3284 21.5 22.5V12.5C21.5 11.6716 20.8284 11 20 11ZM20 26C18.8954 26 18 26.8954 18 28C18 29.1046 18.8954 30 20 30C21.1046 30 22 29.1046 22 28C22 26.8954 21.1046 26 20 26Z" fill="white"/>
</g>
<defs>
<clipPath id="clip0_1292_14030">
<rect width="40" height="40" fill="white"/>
</clipPath>
</defs>
</svg>
