<svg width="24" height="24" viewBox="0 0 24 24" fill="none" xmlns="http://www.w3.org/2000/svg">
<path d="M1.26075 11.2201H1.25623L1.24135 11.2365L1.23226 11.2465C0.855929 11.6605 0.855914 12.3295 1.23221 12.7435L1.26075 11.2201ZM1.26075 11.2201L9.38474 2.26282C9.38475 2.2628 9.38477 2.26278 9.38478 2.26277C9.75924 1.84559 10.3754 1.84596 10.7541 2.26258L10.7677 2.27758C11.1441 2.6916 11.1441 3.36064 10.7677 3.77466L3.30902 12L10.7677 20.2303C11.1441 20.6444 11.1441 21.3134 10.7677 21.7274L10.7307 21.6938L10.7677 21.7274L10.7587 21.7374C10.3798 22.1542 9.7638 22.1542 9.38495 21.7374L9.3849 21.7374L1.23226 12.7435L1.26075 11.2201Z" fill="#222222" stroke="#222222" stroke-width="0.1"/>
</svg>
