<svg width="48" height="48" viewBox="0 0 48 48" fill="none" xmlns="http://www.w3.org/2000/svg">
<circle cx="24" cy="24" r="24" fill="#FAE100"/>
<path d="M24 15C18.4771 15 14 18.6341 14 23.117C14 26.0152 15.8717 28.5583 18.6873 29.9943C18.5341 30.5382 17.703 33.493 17.6699 33.7251C17.6699 33.7251 17.65 33.8995 17.7597 33.966C17.8694 34.0325 17.9985 33.9809 17.9985 33.9809C18.3131 33.9356 21.6468 31.5249 22.2238 31.1063C22.8003 31.1903 23.3938 31.234 24 31.234C29.5229 31.234 34 27.5999 34 23.117C34 18.6341 29.5229 15 24 15Z" fill="black"/>
</svg>
