<svg width="246" height="30" viewBox="0 0 246 30" fill="none" xmlns="http://www.w3.org/2000/svg">
<g clip-path="url(#clip0_613_3984)">
<path d="M0.624023 0.793945H149.609V5.4308H0.624023V0.793945Z" fill="white"/>
<path d="M3.45937 21.3897C3.55477 22.2674 3.31976 23.1492 2.80156 23.8579C2.15382 24.3943 1.36157 24.719 0.528908 24.7894L0.390625 24.8116L1.02656 26.5054L1.11641 26.492C2.30201 26.3692 3.41589 25.8568 4.28907 25.0324C5.11766 24.0359 5.52439 22.7465 5.42032 21.4461V9.39062H3.45937V21.3897Z" fill="white"/>
<path d="M15.936 16.6658C16.0067 17.6881 15.7087 18.7015 15.0977 19.5167C14.4587 20.1348 13.6103 20.4795 12.7282 20.4795C11.8461 20.4795 10.9977 20.1348 10.3587 19.5167C9.74752 18.7016 9.44951 17.6881 9.52039 16.6658V9.39014H7.54149V16.5372C7.48701 17.2945 7.58006 18.0554 7.81534 18.7761C8.05061 19.4968 8.4235 20.1633 8.91259 20.7373C9.9819 21.6493 11.3331 22.1492 12.729 22.1492C14.1248 22.1492 15.4761 21.6493 16.5454 20.7373C17.0342 20.1631 17.4068 19.4966 17.642 18.7759C17.8771 18.0552 17.9701 17.2945 17.9157 16.5372V9.39014H15.936V16.6658Z" fill="white"/>
<path d="M29.3726 16.3315L29.4219 19.1991L22.0703 9.43461L22.0367 9.39014H20.0391V21.9015H21.9258V15.4532L21.8258 12.0647L29.1937 21.857L29.2273 21.9015H31.2773V9.39093H29.3726V16.3315Z" fill="white"/>
<path d="M39.4639 17.009H42.6006V19.9607C41.685 20.4214 40.6717 20.6454 39.6506 20.6127C39.0511 20.631 38.4542 20.5262 37.8955 20.3047C37.3368 20.0831 36.8278 19.7492 36.399 19.323C35.9655 18.8707 35.6277 18.3329 35.4067 17.7427C35.1856 17.1525 35.086 16.5225 35.1139 15.8917C35.0698 14.6259 35.5158 13.3931 36.356 12.4579C36.7833 12.0085 37.2994 11.6564 37.8705 11.4248C38.4415 11.1932 39.0543 11.0873 39.6685 11.1143C41.0115 11.0968 42.3231 11.5269 43.4029 12.3388L43.5092 12.4182L44.3162 10.83L44.2381 10.7712C42.9019 9.82107 41.2991 9.33605 39.6693 9.38863C37.9475 9.35068 36.2809 10.0074 35.0342 11.2151C34.4113 11.8142 33.9201 12.5405 33.5927 13.3462C33.2654 14.1518 33.1094 15.0188 33.1349 15.8901C33.0881 16.7711 33.225 17.6523 33.5366 18.4759C33.8481 19.2995 34.3273 20.0468 34.9428 20.6691C36.17 21.8241 37.7945 22.4426 39.4662 22.3915C41.2574 22.4559 43.0193 21.9168 44.4779 20.8581L44.5232 20.8231V15.3596H39.4639V17.009Z" fill="white"/>
<path d="M60.6757 9.39111H58.428L52.6882 16.8082V9.39111H50.771V25.0352H52.6882V19.7734L54.3976 17.4856L59.0976 25.0344H61.278L55.6812 15.9084L60.6757 9.39111Z" fill="white"/>
<path d="M76.9451 9.39111L73.9225 19.7329L70.8107 9.39111H69.074L66.1311 19.7146L63.4584 9.39111H61.3193L64.7951 21.9024H67.3068L69.935 12.9392L72.5451 21.9024H75.0709L78.9584 9.39111H76.9451Z" fill="white"/>
<path d="M82.2497 9.39014L77.27 21.9015H79.1927L80.6872 18.1794H85.7895L87.3575 21.9015H89.2833L84.1895 9.39014H82.2497ZM83.2653 11.3596L85.145 16.4753H81.3536L83.2513 11.3596H83.2653Z" fill="white"/>
<path d="M99.6165 16.3317L99.6657 19.1993L92.2782 9.39111H90.2837V21.9024H92.1704V15.4542L92.0704 12.0657L99.4727 21.9024H101.523V9.39111H99.6165V16.3317Z" fill="white"/>
<path d="M133.388 16.3317L133.438 19.1993L126.084 9.43876L126.05 9.39429H124.056V21.9056H125.942V15.4574L125.842 12.0689L133.21 21.8611L133.245 21.9056H135.295V9.39111H133.39L133.388 16.3317Z" fill="white"/>
<path d="M116.022 9.39014L111.042 21.9015H112.965L114.46 18.1794H119.562L121.13 21.9015H123.056L117.962 9.39014H116.022ZM117.038 11.3596L118.918 16.4753H115.127L117.025 11.3596H117.038Z" fill="white"/>
<path d="M107.774 21.3897C107.87 22.2674 107.635 23.1492 107.117 23.8579C106.469 24.3943 105.676 24.719 104.844 24.7894L104.706 24.8116L105.342 26.5054L105.431 26.492C106.616 26.3692 107.73 25.8568 108.603 25.0324C109.432 24.0359 109.839 22.7465 109.734 21.4461V9.39062H107.774V21.3897Z" fill="white"/>
<path d="M143.479 17.009H146.616V19.9607C145.7 20.4214 144.687 20.6454 143.666 20.6127C143.066 20.631 142.469 20.5262 141.911 20.3047C141.352 20.0831 140.843 19.7492 140.414 19.323C139.981 18.8707 139.643 18.3329 139.422 17.7427C139.201 17.1525 139.101 16.5225 139.129 15.8917C139.085 14.6259 139.531 13.3931 140.371 12.4579C140.798 12.0085 141.315 11.6564 141.886 11.4248C142.457 11.1932 143.069 11.0873 143.684 11.1143C145.027 11.0968 146.338 11.5269 147.418 12.3388L147.524 12.4182L148.331 10.83L148.253 10.7712C146.917 9.82107 145.314 9.33605 143.684 9.38863C141.963 9.35077 140.296 10.0075 139.049 11.2151C138.426 11.8142 137.935 12.5405 137.608 13.3462C137.281 14.1518 137.125 15.0188 137.15 15.8901C137.103 16.7712 137.24 17.6523 137.552 18.4759C137.863 19.2995 138.342 20.0469 138.958 20.6691C140.185 21.8241 141.81 22.4426 143.481 22.3915C145.273 22.4561 147.035 21.917 148.494 20.8581L148.539 20.8231V15.3596H143.479V17.009Z" fill="white"/>
</g>
<path d="M158.494 22V9.4H160.906L166.27 18.292H164.992L170.266 9.4H172.66L172.696 22H169.96L169.942 13.594H170.446L166.234 20.668H164.92L160.618 13.594H161.23V22H158.494ZM180.293 22.144C179.189 22.144 178.217 21.928 177.377 21.496C176.549 21.064 175.907 20.476 175.451 19.732C174.995 18.976 174.767 18.118 174.767 17.158C174.767 16.186 174.989 15.328 175.433 14.584C175.889 13.828 176.507 13.24 177.287 12.82C178.067 12.388 178.949 12.172 179.933 12.172C180.881 12.172 181.733 12.376 182.489 12.784C183.257 13.18 183.863 13.756 184.307 14.512C184.751 15.256 184.973 16.15 184.973 17.194C184.973 17.302 184.967 17.428 184.955 17.572C184.943 17.704 184.931 17.83 184.919 17.95H177.053V16.312H183.443L182.363 16.798C182.363 16.294 182.261 15.856 182.057 15.484C181.853 15.112 181.571 14.824 181.211 14.62C180.851 14.404 180.431 14.296 179.951 14.296C179.471 14.296 179.045 14.404 178.673 14.62C178.313 14.824 178.031 15.118 177.827 15.502C177.623 15.874 177.521 16.318 177.521 16.834V17.266C177.521 17.794 177.635 18.262 177.863 18.67C178.103 19.066 178.433 19.372 178.853 19.588C179.285 19.792 179.789 19.894 180.365 19.894C180.881 19.894 181.331 19.816 181.715 19.66C182.111 19.504 182.471 19.27 182.795 18.958L184.289 20.578C183.845 21.082 183.287 21.472 182.615 21.748C181.943 22.012 181.169 22.144 180.293 22.144ZM199.245 12.172C200.013 12.172 200.691 12.328 201.279 12.64C201.879 12.94 202.347 13.408 202.683 14.044C203.031 14.668 203.205 15.472 203.205 16.456V22H200.397V16.888C200.397 16.108 200.235 15.532 199.911 15.16C199.587 14.788 199.131 14.602 198.543 14.602C198.135 14.602 197.769 14.698 197.445 14.89C197.121 15.07 196.869 15.346 196.689 15.718C196.509 16.09 196.419 16.564 196.419 17.14V22H193.611V16.888C193.611 16.108 193.449 15.532 193.125 15.16C192.813 14.788 192.363 14.602 191.775 14.602C191.367 14.602 191.001 14.698 190.677 14.89C190.353 15.07 190.101 15.346 189.921 15.718C189.741 16.09 189.651 16.564 189.651 17.14V22H186.843V12.316H189.525V14.962L189.021 14.188C189.357 13.528 189.831 13.03 190.443 12.694C191.067 12.346 191.775 12.172 192.567 12.172C193.455 12.172 194.229 12.4 194.889 12.856C195.561 13.3 196.005 13.984 196.221 14.908L195.231 14.638C195.555 13.882 196.071 13.282 196.779 12.838C197.499 12.394 198.321 12.172 199.245 12.172ZM211.446 22.144C210.594 22.144 209.862 21.964 209.25 21.604C208.638 21.244 208.17 20.698 207.846 19.966C207.522 19.222 207.36 18.286 207.36 17.158C207.36 16.018 207.528 15.082 207.864 14.35C208.212 13.618 208.692 13.072 209.304 12.712C209.916 12.352 210.63 12.172 211.446 12.172C212.358 12.172 213.174 12.376 213.894 12.784C214.626 13.192 215.202 13.768 215.622 14.512C216.054 15.256 216.27 16.138 216.27 17.158C216.27 18.166 216.054 19.042 215.622 19.786C215.202 20.53 214.626 21.112 213.894 21.532C213.174 21.94 212.358 22.144 211.446 22.144ZM205.722 22V8.644H208.53V14.278L208.35 17.14L208.404 20.02V22H205.722ZM210.96 19.84C211.428 19.84 211.842 19.732 212.202 19.516C212.574 19.3 212.868 18.994 213.084 18.598C213.312 18.19 213.426 17.71 213.426 17.158C213.426 16.594 213.312 16.114 213.084 15.718C212.868 15.322 212.574 15.016 212.202 14.8C211.842 14.584 211.428 14.476 210.96 14.476C210.492 14.476 210.072 14.584 209.7 14.8C209.328 15.016 209.034 15.322 208.818 15.718C208.602 16.114 208.494 16.594 208.494 17.158C208.494 17.71 208.602 18.19 208.818 18.598C209.034 18.994 209.328 19.3 209.7 19.516C210.072 19.732 210.492 19.84 210.96 19.84ZM222.956 22.144C221.852 22.144 220.88 21.928 220.04 21.496C219.212 21.064 218.57 20.476 218.114 19.732C217.658 18.976 217.43 18.118 217.43 17.158C217.43 16.186 217.652 15.328 218.096 14.584C218.552 13.828 219.17 13.24 219.95 12.82C220.73 12.388 221.612 12.172 222.596 12.172C223.544 12.172 224.396 12.376 225.152 12.784C225.92 13.18 226.526 13.756 226.97 14.512C227.414 15.256 227.636 16.15 227.636 17.194C227.636 17.302 227.63 17.428 227.618 17.572C227.606 17.704 227.594 17.83 227.582 17.95H219.716V16.312H226.106L225.026 16.798C225.026 16.294 224.924 15.856 224.72 15.484C224.516 15.112 224.234 14.824 223.874 14.62C223.514 14.404 223.094 14.296 222.614 14.296C222.134 14.296 221.708 14.404 221.336 14.62C220.976 14.824 220.694 15.118 220.49 15.502C220.286 15.874 220.184 16.318 220.184 16.834V17.266C220.184 17.794 220.298 18.262 220.526 18.67C220.766 19.066 221.096 19.372 221.516 19.588C221.948 19.792 222.452 19.894 223.028 19.894C223.544 19.894 223.994 19.816 224.378 19.66C224.774 19.504 225.134 19.27 225.458 18.958L226.952 20.578C226.508 21.082 225.95 21.472 225.278 21.748C224.606 22.012 223.832 22.144 222.956 22.144ZM229.505 22V12.316H232.187V15.052L231.809 14.26C232.097 13.576 232.559 13.06 233.195 12.712C233.831 12.352 234.605 12.172 235.517 12.172V14.764C235.397 14.752 235.289 14.746 235.193 14.746C235.097 14.734 234.995 14.728 234.887 14.728C234.119 14.728 233.495 14.95 233.015 15.394C232.547 15.826 232.313 16.504 232.313 17.428V22H229.505ZM240.515 22.144C239.687 22.144 238.889 22.048 238.121 21.856C237.365 21.652 236.765 21.4 236.321 21.1L237.257 19.084C237.701 19.36 238.223 19.588 238.823 19.768C239.435 19.936 240.035 20.02 240.623 20.02C241.271 20.02 241.727 19.942 241.991 19.786C242.267 19.63 242.405 19.414 242.405 19.138C242.405 18.91 242.297 18.742 242.081 18.634C241.877 18.514 241.601 18.424 241.253 18.364C240.905 18.304 240.521 18.244 240.101 18.184C239.693 18.124 239.279 18.046 238.859 17.95C238.439 17.842 238.055 17.686 237.707 17.482C237.359 17.278 237.077 17.002 236.861 16.654C236.657 16.306 236.555 15.856 236.555 15.304C236.555 14.692 236.729 14.152 237.077 13.684C237.437 13.216 237.953 12.85 238.625 12.586C239.297 12.31 240.101 12.172 241.037 12.172C241.697 12.172 242.369 12.244 243.053 12.388C243.737 12.532 244.307 12.742 244.763 13.018L243.827 15.016C243.359 14.74 242.885 14.554 242.405 14.458C241.937 14.35 241.481 14.296 241.037 14.296C240.413 14.296 239.957 14.38 239.669 14.548C239.381 14.716 239.237 14.932 239.237 15.196C239.237 15.436 239.339 15.616 239.543 15.736C239.759 15.856 240.041 15.952 240.389 16.024C240.737 16.096 241.115 16.162 241.523 16.222C241.943 16.27 242.363 16.348 242.783 16.456C243.203 16.564 243.581 16.72 243.917 16.924C244.265 17.116 244.547 17.386 244.763 17.734C244.979 18.07 245.087 18.514 245.087 19.066C245.087 19.666 244.907 20.2 244.547 20.668C244.187 21.124 243.665 21.484 242.981 21.748C242.309 22.012 241.487 22.144 240.515 22.144Z" fill="white"/>
<defs>
<clipPath id="clip0_613_3984">
<rect width="150" height="27" fill="white"/>
</clipPath>
</defs>
</svg>
