<svg width="32" height="32" viewBox="0 0 32 32" fill="none" xmlns="http://www.w3.org/2000/svg">
    <g clip-path="url(#clip0_1040_5149)">
    <rect x="1" y="1" width="30" height="30" rx="15" fill="white" stroke="#E29323" stroke-width="2"/>
    <path d="M9.55694 13.278V16.442H10.9009C12.2309 16.442 12.9589 15.882 12.9589 14.776C12.9589 13.656 12.2309 13.278 10.9009 13.278H9.55694ZM15.4369 22H13.1269L10.9989 18.08H9.55694V22H7.48494V11.64H11.0969C13.2669 11.64 14.9889 12.396 14.9889 14.776C14.9889 16.33 14.2049 17.296 13.0149 17.758L15.4369 22ZM21.4799 22.196C18.6519 22.196 16.5099 20.32 16.5099 16.862C16.5099 13.446 18.7219 11.444 21.4799 11.444C22.9779 11.444 24.0139 12.088 24.6859 12.774L23.5799 14.09C23.0759 13.6 22.4879 13.222 21.5499 13.222C19.8279 13.222 18.6239 14.566 18.6239 16.792C18.6239 19.046 19.6599 20.404 21.6899 20.404C22.1939 20.404 22.6979 20.264 22.9919 20.012V17.968H21.1579V16.274H24.8399V20.95C24.1399 21.636 22.9219 22.196 21.4799 22.196Z" fill="#E29323"/>
    </g>
    <defs>
    <clipPath id="clip0_1040_5149">
    <rect width="32" height="32" fill="white"/>
    </clipPath>
    </defs>
</svg>
