<svg width="32" height="32" viewBox="0 0 32 32" fill="none" xmlns="http://www.w3.org/2000/svg">
    <g clip-path="url(#clip0_1040_5156)">
    <rect x="1" y="1" width="30" height="30" rx="15" fill="white" stroke="#CAA851" stroke-width="2"/>
    <path d="M16.7084 22.196C13.8804 22.196 11.7384 20.32 11.7384 16.862C11.7384 13.446 13.9504 11.444 16.7084 11.444C18.2064 11.444 19.2424 12.088 19.9144 12.774L18.8084 14.09C18.3044 13.6 17.7164 13.222 16.7784 13.222C15.0564 13.222 13.8524 14.566 13.8524 16.792C13.8524 19.046 14.8884 20.404 16.9184 20.404C17.4224 20.404 17.9264 20.264 18.2204 20.012V17.968H16.3864V16.274H20.0684V20.95C19.3684 21.636 18.1504 22.196 16.7084 22.196Z" fill="#CAA851"/>
    </g>
    <defs>
    <clipPath id="clip0_1040_5156">
    <rect width="32" height="32" fill="white"/>
    </clipPath>
    </defs>
</svg>
    