<svg width="32" height="32" viewBox="0 0 32 32" fill="none" xmlns="http://www.w3.org/2000/svg">
    <g clip-path="url(#clip0_1040_5153)">
    <rect x="1" y="1" width="30" height="30" rx="15" fill="white" stroke="#84919B" stroke-width="2"/>
    <path d="M15.9998 22.196C14.6138 22.196 13.2278 21.65 12.2198 20.684L13.4098 19.256C14.1518 19.942 15.1318 20.404 16.0418 20.404C17.1198 20.404 17.6938 19.942 17.6938 19.214C17.6938 18.444 17.0638 18.206 16.1398 17.814L14.7538 17.226C13.7038 16.792 12.6538 15.952 12.6538 14.44C12.6538 12.746 14.1378 11.444 16.2378 11.444C17.4418 11.444 18.6458 11.92 19.4858 12.774L18.4358 14.076C17.7778 13.53 17.0918 13.222 16.2378 13.222C15.3278 13.222 14.7398 13.628 14.7398 14.314C14.7398 15.056 15.4818 15.322 16.3638 15.672L17.7218 16.246C18.9818 16.764 19.8078 17.562 19.8078 19.06C19.8078 20.754 18.3938 22.196 15.9998 22.196Z" fill="#84919B"/>
    </g>
    <defs>
    <clipPath id="clip0_1040_5153">
    <rect width="32" height="32" fill="white"/>
    </clipPath>
    </defs>
</svg>
